<svg xmlns="http://www.w3.org/2000/svg" width="100" height="100" viewBox="0 0 100 100"><g fill="#1A1A1A"><path d="M36.88 41.664h13.12v-10.17h-14.023l.903 10.17zm-26.54-36.664l7.229 80.998 32.41 9.002 32.451-8.999 7.23-81.001h-79.32zm65.892 75.84l-26.232 7.273v-10.296h-.013l-20.354-5.646-1.423-15.962h9.971l.743 8.287 11.063 2.972h.013v-15.863h-22.196l-2.681-30.046h24.877v-9.93h32.418l-6.186 69.211z"/><path opacity=".8" enable-background="new" d="M62.234 51.604h-12.234v15.859l11.08-2.98 1.154-12.879zm-12.234-39.975v9.93h24.885l-.89 9.935h-23.995v10.169h23.088l-2.729 30.508-20.359 5.646v10.298l26.232-7.273 6.186-69.212-32.418-.001z"/><g opacity=".2"><path d="M50 21.559h-24.877l2.681 30.045h22.196v-9.94h-13.12l-.903-10.17h14.023zM50 67.463l-.011.005-11.063-2.98-.742-8.279h-9.966l1.415 15.962 20.354 5.646h.013z"/></g></g></svg>