<svg xmlns="http://www.w3.org/2000/svg" width="100" height="100" viewBox="0 0 100 100"><g fill="#fff"><path d="M44.018 22c-.488-1.077.168-2.174 1.416-2.174h11.085c.676 0 1.253.514 1.416.905l13.745 30.416h.511l13.721-30.417c.189-.391.771-.905 1.417-.905h11.083c1.27 0 1.919 1.097 1.419 2.174l-26.155 56.054c-.257.5-.752.929-1.413.929h-.84c-.647 0-1.159-.429-1.415-.929l-25.99-56.053zM55.981 78.005c.489 1.077-.169 2.17-1.417 2.17h-11.084c-.675 0-1.255-.509-1.416-.902l-13.747-30.418h-.51l-13.722 30.417c-.189.394-.769.902-1.416.902h-11.082c-1.27 0-1.921-1.093-1.416-2.17l26.151-56.056c.257-.497.752-.926 1.416-.926h.84c.646 0 1.159.43 1.412.926l25.991 56.057z"/></g></svg>