<svg xmlns="http://www.w3.org/2000/svg" width="100" height="100" viewBox="0 0 100 100"><path fill="#fff" d="M100 79.167c0 1.147-.936 2.083-2.083 2.083h-95.834c-1.145 0-2.083-.936-2.083-2.083v-8.334c0-1.147.938-2.083 2.083-2.083h95.833c1.147 0 2.083.936 2.083 2.083v8.334zm0-33.334c0-1.146-.936-2.083-2.083-2.083h-95.834c-1.145 0-2.083.938-2.083 2.083v8.334c0 1.147.938 2.083 2.083 2.083h95.833c1.147 0 2.083-.936 2.083-2.083v-8.334zm0-25c0-1.146-.936-2.083-2.083-2.083h-95.834c-1.145 0-2.083.938-2.083 2.083v8.333c0 1.146.938 2.083 2.083 2.083h95.833c1.147 0 2.083-.938 2.083-2.083v-8.333z"/></svg>