<svg xmlns="http://www.w3.org/2000/svg" xmlns:xlink="http://www.w3.org/1999/xlink" width="100" height="100" viewBox="0 0 100 100"><g opacity=".3"><path fill="#1A1A1A" d="M33.331 23.4h33.335v49.998h-33.335z"/><defs><path id="a" d="M33.331 23.4h33.335v49.998h-33.335z"/></defs><clipPath id="b"><use xlink:href="#a" overflow="visible"/></clipPath><path clip-path="url(#b)" fill="#1A1A1A" d="M33.331 23.4h33.335v49.998h-33.335z"/></g><path fill="#1A1A1A" d="M64.989 10h-29.987c-4.585 0-8.339 3.745-8.339 8.336v63.344c0 4.572 3.754 8.32 8.339 8.32h29.987c4.604 0 8.348-3.748 8.348-8.32v-63.344c.002-4.591-3.744-8.336-8.348-8.336m-14.988 77.571c-3.266 0-5.905-2.643-5.905-5.908 0-3.265 2.641-5.905 5.905-5.905 3.263 0 5.907 2.641 5.907 5.905 0 3.266-2.644 5.908-5.907 5.908m-16.672-64.231h33.337v49.993h-33.337v-49.993z"/></svg>