<svg xmlns="http://www.w3.org/2000/svg" width="100" height="100" viewBox="0 0 100 100"><g fill="#1A1A1A"><path d="M13.54 50c0 14.428 8.384 26.906 20.546 32.815l-17.391-47.653c-2.024 4.534-3.155 9.549-3.155 14.838zM74.611 48.158c0-4.505-1.627-7.626-3.006-10.049-1.85-3.007-3.585-5.552-3.585-8.554 0-3.355 2.539-6.47 6.124-6.47l.467.03c-6.475-5.943-15.119-9.575-24.615-9.575-12.736 0-23.942 6.54-30.46 16.436.854.03 1.664.042 2.345.042 3.816 0 9.716-.459 9.716-.459 1.968-.122 2.198 2.768.24 2.998 0 0-1.98.232-4.176.351l13.278 39.489 7.98-23.929-5.676-15.56c-1.968-.119-3.83-.351-3.83-.351-1.964-.115-1.732-3.119.232-3.001 0 0 6.018.46 9.599.46 3.811 0 9.72-.46 9.72-.46 1.959-.118 2.201 2.767.229 3.001 0 0-1.977.232-4.171.351l13.178 39.192 3.634-12.154c1.578-5.043 2.777-8.664 2.777-11.788zM50.639 53.188l-10.94 31.792c3.267.95 6.721 1.486 10.297 1.486 4.249 0 8.319-.736 12.107-2.063-.099-.163-.191-.329-.269-.506l-11.195-30.709zM81.996 32.506c.155 1.162.241 2.407.241 3.752 0 3.698-.694 7.859-2.773 13.057l-11.139 32.198c10.849-6.32 18.135-18.058 18.135-31.513 0-6.335-1.627-12.3-4.464-17.494zM50 7.5c-23.433 0-42.5 19.067-42.5 42.5 0 23.439 19.067 42.5 42.5 42.5 23.439 0 42.5-19.061 42.5-42.5 0-23.433-19.061-42.5-42.5-42.5zm0 83.049c-22.356 0-40.551-18.187-40.551-40.549 0-22.356 18.19-40.551 40.551-40.551 22.367 0 40.549 18.194 40.549 40.551 0 22.364-18.187 40.549-40.549 40.549z"/></g></svg>